<svg xmlns="http://www.w3.org/2000/svg" width="512" height="512" fill="none" viewBox="0 0 512 512"><circle cx="256" cy="256" r="256" fill="url(#a)"/><path fill="url(#b)" d="M255 24c128.13 0 232 103.87 232 232S383.13 488 255 488 23 384.13 23 256 126.87 24 255 24m0 24c-.989 0-1.977.0067-2.963.0205-1.689.0236-3.374.0672-5.054.1309-.13.0049-.261.0104-.392.0156-.32.0127-.64.0249-.96.0391-.029.0012-.058.0035-.087.0048-.852.0381-1.702.0806-2.551.1289-.194.0111-.389.0236-.583.0352-.237.0141-.473.028-.71.043-.701.0442-1.402.0923-2.101.1435-.191.014-.382.0275-.573.042-.068.0052-.136.0114-.205.0166-1.244.0957-2.485.2019-3.722.3194-.094.0089-.189.0182-.283.0273-.778.0749-1.554.1538-2.33.2373-.108.0117-.217.0233-.326.0352q-1.1535.126-2.304.2646c-.145.0176-.291.0358-.437.0537-.267.0328-.535.0658-.802.0996-.21.0266-.419.0539-.629.0811-.237.0307-.474.0612-.711.0928-.225.0299-.45.0611-.674.0918-.176.024-.352.0478-.528.0722-.322.0448-.644.0904-.966.1367-.111.0161-.222.0317-.334.0479-.291.0423-.581.0863-.872.1299-.14.021-.281.0411-.422.0625-.314.0477-.627.0973-.941.1465-.11.0172-.22.0333-.33.0507-.191.0303-.382.0611-.572.0918-.29.0467-.579.0938-.868.1416-.034.0055-.067.0111-.1.0166-1.225.2035-2.447.4178-3.665.6426-.128.0236-.256.0474-.384.0713-.309.0576-.617.1158-.926.1748-.19.0364-.38.0735-.57.1104-.185.0358-.369.072-.554.1084-.286.0563-.572.1133-.857.1709-.146.0293-.291.0582-.437.0878-.285.0581-.57.1166-.854.1758-.131.0273-.262.0546-.393.0821-.208.0437-.416.0884-.625.1328-.26.0554-.519.1106-.779.167-.123.0266-.245.0542-.367.081-.268.0586-.535.1181-.802.1778-.187.0418-.374.0836-.561.1259-.233.0527-.466.1048-.699.1582-.176.0405-.351.0822-.527.1231-.263.0611-.526.1214-.788.1836-.173.0409-.345.0827-.518.124-.21.0505-.421.1012-.632.1523-.232.0565-.465.1137-.697.1709-1.069.2637-2.135.5363-3.198.8164-.05.0132-.1.0259-.15.0391-.754.1994-1.507.4028-2.257.6104-.116.0319-.231.0645-.347.0966-.315.0877-.629.1756-.943.2647-.1.0284-.2.0574-.3.0859-.304.0867-.608.1737-.911.2617-.081.0235-.162.0468-.242.0704-.353.1028-.706.2058-1.058.3105-.035.0105-.07.0217-.106.0322-.335.1-.671.2002-1.005.3018-.138.0416-.275.0841-.412.126-.298.0912-.596.1828-.894.2754-.069.0212-.137.0431-.205.0644-.283.0883-.566.1771-.849.2666-.181.0574-.363.115-.544.1729-.269.0859-.538.1717-.806.2588-.099.0319-.198.0645-.296.0966-.258.084-.515.169-.773.2539-.168.0557-.337.1109-.506.167-.277.0923-.553.185-.83.2783-.098.0332-.196.0664-.294.0997-.28.0953-.561.1906-.841.2871-.174.0597-.347.1205-.52.1806-.227.0789-.454.1577-.681.2373-.121.0426-.242.0852-.363.128-.31.1094-.619.2192-.929.33-.087.0314-.174.0633-.261.0948-.273.0982-.546.1966-.818.2959-.166.0606-.332.1216-.498.1826-.257.0945-.514.1896-.77.2851-.094.0348-.187.0696-.281.1045-1.102.4124-2.2.8343-3.293 1.2647-.124.0484-.247.0968-.37.1455-.208.0823-.415.1651-.623.248-.197.079-.395.1578-.592.2373-.263.1058-.525.2116-.787.3184-.065.0266-.13.0534-.195.0801-.299.1225-.598.2462-.897.3701-.146.0604-.291.1209-.437.1816-.242.101-.484.2019-.725.3037q-.171.07215-.342.1446c-.305.129-.609.2592-.912.3896-.074.0317-.148.063-.222.0948-.262.113-.524.2267-.786.3408-.168.0731-.336.1462-.503.2197-.237.104-.474.2086-.71.3135-.12.053-.239.1059-.358.1592-.292.1298-.583.2604-.874.3916-.073.0333-.147.0671-.221.1005-.654.296-1.305.596-1.955.8985-.167.0777-.334.1552-.501.2334-.189.0886-.378.1784-.567.2676-.19.0901-.381.1798-.572.2705-.176.0837-.352.1677-.527.2519-.192.092-.384.1838-.575.2764-.26.1254-.519.2515-.778.3779-.079.0388-.159.0773-.238.1162-.299.1466-.597.2945-.896.4424-.072.036-.145.0714-.217.1074q-.993.49395-1.98.9981c-.105.0539-.211.108-.316.1621-.282.1447-.564.2906-.845.4365-.089.0463-.178.0923-.268.1387-.25.1305-.5.262-.751.3935-.125.066-.25.1321-.376.1983-.601.3177-1.2.6385-1.797.9619-.154.0832-.308.1664-.461.25-.133.0722-.265.1443-.398.2168-.643.352-1.284.7078-1.923 1.0664-.075.0425-.151.0844-.227.127-.625.3516-1.248.7065-1.868 1.0644-.13.0749-.26.1495-.39.2246-.603.3493-1.204.7015-1.803 1.0567-.115.0685-.231.1372-.346.206-.581.346-1.16.6954-1.738 1.0469-.137.0835-.274.1672-.411.251-.566.3462-1.13.6944-1.692 1.0459-.155.0966-.309.194-.463.291-.591.3718-1.181.7464-1.768 1.124-.054.0348-.108.0697-.162.1045-.608.3921-1.215.7872-1.819 1.1855-.135.0891-.27.1782-.405.2676-.576.3816-1.15.7662-1.722 1.1533-.08.054-.16.108-.239.1621-.598.406-1.194.8146-1.787 1.2266-.125.0865-.249.174-.373.2607-.535.3731-1.069.7481-1.6 1.126-.436.3099-.868.6244-1.301.9375-.254.184-.51.3658-.764.5508-.361.2638-.72.5308-1.08.7969-.319.2364-.64.4717-.958.7099-.303.2272-.604.4578-.906.6866-.349.2646-.7.5272-1.048.7939-.416.3192-.828.6426-1.242.9649-.241.1878-.483.3736-.724.5625-.473.3726-.944.7492-1.415 1.1259-.171.137-.343.2727-.513.4102-.369.2969-.734.5971-1.101.8965-.294.2403-.59.4787-.883.7207-.284.2352-.566.4742-.849.7109-.338.2816-.677.561-1.012.8447-1.499 1.2677-2.977 2.5593-4.438 3.8679-.405.362-.81.722-1.211 1.087-1.631 1.483-3.236 2.995-4.819 4.529-1.118 1.083-2.223 2.179-3.316 3.287-2.001 2.026-3.963 4.091-5.879 6.198-.148.163-.294.328-.441.491-1.5363 1.699-3.0471 3.422-4.5269 5.171-.1264.149-.2499.301-.3759.451-.3945.469-.7894.938-1.1797 1.41-.1998.242-.396.487-.5947.73-.3416.417-.6841.834-1.0225 1.254-.1375.17-.2732.342-.4102.513-.3767.471-.7533.942-1.1259 1.415-.0733.094-.1447.188-.2178.282-.4387.559-.8766 1.12-1.3096 1.684-.2298.3-.4563.602-.6846.903-.2657.35-.5323.699-.7959 1.051-.2085.279-.4139.56-.6211.839-.2958.399-.5926.798-.8857 1.199-.1171.161-.2319.323-.3486.484-.3815.526-.763 1.051-1.1397 1.581-.3779.531-.7529 1.065-1.126 1.6-.0867.124-.1742.248-.2607.373-.412.593-.8206 1.189-1.2266 1.787-.0541.079-.1081.159-.1621.239-.3871.572-.7717 1.146-1.1533 1.722-.0894.135-.1785.27-.2676.405-.3983.604-.7934 1.211-1.1855 1.819-.0348.054-.0697.108-.1045.162-.3776.587-.7522 1.177-1.124 1.768-.097.154-.1944.308-.291.463-.3336.533-.6634 1.069-.9922 1.606-.1015.166-.2036.331-.3047.497-.3515.578-.7009 1.157-1.0469 1.738-.0688.115-.1375.231-.206.346-.3552.599-.7074 1.2-1.0567 1.803-.0751.13-.1497.26-.2246.39-.3579.62-.7128 1.243-1.0644 1.868-.0414.073-.0828.147-.1241.221-.3598.641-.7161 1.284-1.0693 1.929-.0704.129-.1409.257-.2109.386-.0743.136-.1487.273-.2227.409-.335.619-.6662 1.239-.9951 1.861-.0418.08-.0833.159-.125.238-.3506.665-.6985 1.332-1.042 2.002-.0541.105-.1082.211-.1621.316-.6993 1.369-1.3841 2.746-2.0537 4.132-.0732.152-.1459.303-.2188.455-.1141.238-.2276.476-.3408.714-.065.137-.1297.273-.1943.41-.1006.213-.201.426-.3008.639-.0704.15-.1399.301-.21.451-.1263.271-.2527.542-.3779.814-.0425.093-.0846.185-.127.278-.3061.667-.6099 1.336-.9091 2.008-.0533.119-.1062.238-.1592.358-.1049.236-.2095.473-.3135.71-.0735.167-.1466.335-.2197.503-.2782.638-.5532 1.278-.8252 1.92q-.07245.171-.1446.342c-.1018.241-.2027.483-.3037.725-.0607.146-.1212.291-.1816.437-.2559.617-.5086 1.236-.7588 1.856-.0788.196-.1571.391-.2353.587-.0868.217-.1738.434-.2598.651-.0487.123-.0971.246-.1455.37-.567 1.44-1.1188 2.888-1.6543 4.344-.061.166-.122.332-.1826.498-.2437.668-.4838 1.337-.7207 2.008-.0428.121-.0854.242-.128.363-.0796.227-.1584.454-.2373.681-.0601.173-.1209.346-.1806.52-.2251.653-.4464 1.309-.6651 1.965-.0436.131-.0865.263-.1299.394-.2186.661-.4343 1.323-.6464 1.987-.0571.179-.1143.358-.1709.536-.206.651-.4087 1.303-.6084 1.956-.0404.133-.081.265-.1211.397-.2204.726-.4368 1.454-.6494 2.184-.0086.029-.016.058-.0245.087-.2211.76-.4386 1.522-.6513 2.286-.0344.123-.0694.246-.1035.37-.2003.724-.3963 1.45-.5889 2.177-.0255.097-.0518.193-.0772.289-.2746 1.044-.541 2.09-.7998 3.139-.0547.222-.1091.444-.163.666-.024.099-.0475.197-.0713.296-.0659.273-.1315.546-.1963.819-.0674.285-.134.569-.2002.854-.0409.176-.0826.351-.1231.527-.2314 1.007-.4541 2.017-.6709 3.029-.1462.682-.2901 1.366-.4297 2.051-.0296.146-.0585.291-.0878.437-.0576.285-.1146.571-.1709.857-.1344.682-.2659 1.366-.3936 2.05-.0239.128-.0477.256-.0713.384-.2866 1.552-.5557 3.111-.8076 4.676-.235 1.459-.4547 2.924-.6592 4.394-.0886.637-.174 1.275-.2568 1.913-.0269.208-.0538.415-.0801.622-.4149 3.277-.7531 6.578-1.0137 9.901-.0486.62-.0954 1.242-.1386 1.864-.2544 3.662-.4133 7.349-.4756 11.061-.02 1.185-.0303 2.373-.0303 3.564 0 64.365 29.2358 121.902 75.152 160.056 1.276 1.059 2.564 2.104 3.865 3.133 15.936 12.613 33.763 22.942 52.987 30.491.785.308 1.572.612 2.361.911 21.705 8.217 45.144 12.907 69.616 13.371.89.017 1.782.028 2.674.034L255 464c1.523 0 3.042-.018 4.558-.051.936-.02 1.871-.046 2.804-.079 2.334-.081 4.658-.2 6.971-.357.105-.007.21-.014.314-.021.181-.012.362-.027.542-.04.267-.019.534-.037.801-.057.671-.051 1.34-.107 2.009-.165.504-.043 1.008-.087 1.512-.134.345-.032.689-.065 1.034-.099.454-.044.907-.091 1.359-.139.454-.047.907-.096 1.36-.146.63-.07 1.26-.142 1.888-.218.269-.032.538-.066.806-.099.151-.019.302-.037.452-.056.181-.023.362-.047.542-.07.698-.091 1.396-.183 2.092-.281.682-.095 1.362-.195 2.042-.297.18-.027.359-.053.539-.081.705-.107 1.409-.219 2.112-.334.149-.024.299-.047.448-.072.212-.035.424-.072.636-.107.224-.038.447-.076.67-.115.091-.015.181-.031.272-.046.738-.128 1.474-.259 2.21-.395.336-.062.672-.126 1.008-.189.093-.018.186-.034.279-.052.319-.061.638-.124.957-.187l.315-.06c.277-.055.553-.112.829-.167.155-.031.309-.062.463-.093.274-.056.547-.113.821-.17.141-.03.283-.059.425-.089.637-.134 1.273-.272 1.908-.412.654-.144 1.307-.29 1.96-.44.119-.028.239-.056.359-.084.278-.065.555-.13.833-.196.279-.066.557-.133.836-.2.127-.031.254-.061.382-.092.201-.049.403-.098.604-.148 1.902-.469 3.793-.964 5.673-1.484.127-.036.255-.071.382-.107 1.095-.305 2.186-.619 3.273-.941.657-.195 1.312-.394 1.966-.595.18-.055.359-.11.538-.166.639-.198 1.276-.4 1.911-.605.176-.056.353-.112.529-.169.093-.031.186-.061.279-.091.309-.101.617-.202.925-.304.166-.055.332-.111.498-.166.217-.073.435-.145.652-.219.188-.063.375-.127.563-.191.222-.076.445-.152.668-.229.203-.07.405-.14.608-.211.186-.064.371-.129.557-.194.364-.128.729-.257 1.092-.387.007-.002.013-.005.019-.007.695-.249 1.388-.501 2.08-.757.141-.053.283-.105.424-.158.13-.048.261-.097.391-.146.294-.11.587-.221.88-.332.096-.036.192-.073.287-.109.262-.1.523-.2.784-.301.18-.07.36-.14.541-.21.235-.092.471-.184.706-.277q.213-.0825.426-.168c.237-.094.475-.188.712-.283.168-.067.336-.135.503-.203.239-.096.478-.193.716-.29l.489-.201c.193-.079.385-.158.577-.237.226-.094.453-.189.679-.284.187-.078.373-.156.559-.235.181-.076.362-.153.543-.23.196-.084.393-.167.59-.251.235-.101.47-.203.705-.305.128-.056.256-.11.384-.166.669-.292 1.335-.588 2.001-.887.117-.052.234-.104.351-.157l.45-.204q.936-.4245 1.866-.858c.257-.119.513-.239.769-.36.104-.049.208-.098.313-.147.232-.11.464-.221.696-.331.16-.077.321-.153.481-.23.203-.098.406-.197.609-.295.204-.099.408-.197.612-.297.107-.052.214-.105.321-.158.266-.13.532-.262.797-.393.172-.085.343-.171.514-.256.181-.091.361-.181.542-.272.2-.101.4-.202.599-.304.173-.087.346-.174.518-.262.185-.095.371-.19.556-.285.225-.116.45-.233.675-.35.088-.045.176-.091.263-.137.275-.143.551-.287.825-.431.126-.067.252-.133.378-.2.257-.135.512-.272.768-.409.083-.044.165-.088.248-.133q.396-.2115.792-.426c.156-.085.311-.17.467-.255.213-.117.427-.233.64-.351.14-.077.28-.154.419-.231.222-.123.443-.245.664-.368.195-.109.39-.218.584-.328.144-.08.287-.162.431-.243.217-.122.434-.245.65-.369.163-.092.325-.185.487-.278.226-.13.452-.26.677-.391.108-.062.215-.124.323-.186.261-.152.521-.304.782-.457.104-.061.208-.122.311-.183.27-.159.54-.319.809-.479.102-.061.205-.122.308-.183.175-.105.351-.211.526-.316.232-.14.464-.28.695-.42.068-.041.135-.082.202-.123.279-.17.558-.34.836-.511.116-.072.232-.143.348-.215.198-.122.395-.245.593-.368.633-.394 1.265-.792 1.893-1.193.044-.027.088-.056.131-.084.61-.389 1.217-.781 1.822-1.176.137-.09.274-.18.412-.27q.876-.5745 1.746-1.158c.085-.057.17-.115.256-.173 1.246-.839 2.483-1.691 3.71-2.557.171-.12.342-.241.512-.362.262-.186.523-.373.783-.56.413-.296.825-.592 1.235-.89.289-.21.575-.423.863-.635.39-.287.78-.573 1.168-.862.278-.207.553-.417.83-.626.376-.284.753-.566 1.127-.853.297-.226.591-.456.887-.684.371-.287.742-.574 1.111-.863.348-.273.695-.549 1.041-.824q.4455-.3525.888-.708c.326-.262.651-.526.976-.791.308-.25.616-.5.922-.752.335-.275.668-.552 1-.83.317-.263.633-.526.948-.792.296-.25.59-.502.885-.754.346-.295.692-.589 1.035-.886.257-.222.511-.445.766-.667.373-.326.746-.652 1.117-.98.276-.244.549-.49.824-.735.327-.293.655-.585.98-.88.295-.267.587-.536.88-.805.339-.311.679-.622 1.016-.935.251-.233.501-.468.75-.702.343-.322.686-.643 1.027-.967.29-.276.578-.554.866-.831.306-.294.612-.588.916-.884.293-.286.584-.573.876-.86.305-.301.61-.601.913-.904.292-.291.581-.583.871-.876.282-.285.565-.569.846-.855.304-.31.605-.623.907-.935.284-.294.569-.587.852-.883.293-.307.585-.616.877-.924.273-.289.546-.578.817-.869.287-.307.572-.616.857-.924.282-.306.564-.612.844-.919.253-.278.505-.557.756-.835.328-.364.657-.729.983-1.095.193-.218.385-.437.578-.655.35-.397.7-.794 1.047-1.194.222-.256.443-.514.665-.772.305-.355.61-.711.914-1.068.267-.315.531-.631.796-.948.265-.315.53-.631.792-.948.268-.323.534-.649.8-.974s.532-.65.796-.976c.242-.299.481-.599.721-.9.28-.351.561-.702.839-1.054.242-.307.481-.615.721-.923.268-.343.536-.686.801-1.031.257-.334.511-.67.766-1.005.242-.319.485-.637.725-.957.278-.37.553-.741.829-1.113.233-.315.466-.63.698-.947.22-.3.438-.602.656-.904.266-.367.532-.735.795-1.104.372-.521.743-1.044 1.11-1.569.066-.093.13-.187.196-.28.418-.6.834-1.201 1.246-1.805.064-.094.128-.19.192-.284q.5925-.8715 1.176-1.749c.07-.105.139-.211.209-.317.837-1.264 1.662-2.538 2.473-3.822l.297-.474c.352-.561.702-1.123 1.048-1.687.137-.222.273-.445.408-.668.061-.099.121-.198.181-.297.135-.223.27-.446.404-.67.095-.157.19-.315.285-.472.094-.159.188-.318.283-.477.123-.208.247-.416.37-.624.1-.169.2-.338.299-.507.114-.195.228-.39.342-.586.102-.176.203-.353.305-.529.092-.159.183-.317.275-.476.125-.218.25-.436.375-.655.092-.162.183-.325.275-.487.114-.202.228-.403.341-.605.078-.139.156-.279.234-.419.13-.231.258-.464.387-.696.088-.159.176-.317.264-.477.095-.173.19-.346.285-.52.095-.175.191-.351.286-.526.754-1.391 1.493-2.791 2.217-4.201l.156-.306c.502-.983.996-1.971 1.483-2.963.057-.115.114-.23.17-.346.095-.193.189-.387.282-.581.104-.214.209-.428.312-.642.276-.575.548-1.151.819-1.728.086-.182.171-.363.256-.545.492-1.056.976-2.118 1.45-3.184l.087-.195c.099-.222.196-.445.294-.668.071-.16.142-.32.212-.48q1.176-2.6925 2.277-5.424c.079-.196.159-.391.237-.587.05-.125.098-.251.148-.377.083-.208.166-.416.248-.625.557-1.414 1.098-2.835 1.624-4.264.065-.174.13-.349.194-.524.077-.212.153-.424.23-.637.062-.171.124-.343.186-.514.216-.604.429-1.208.64-1.814.202-.58.402-1.161.599-1.743.382-1.13.755-2.265 1.118-3.403.035-.111.07-.222.106-.332.332-1.049.656-2.102.972-3.158.047-.154.093-.309.139-.464.917-3.087 1.763-6.204 2.539-9.35.148-.601.295-1.202.437-1.805.358-1.509.698-3.024 1.023-4.546.304-1.424.595-2.853.869-4.288.298-1.555.577-3.117.84-4.685.094-.563.186-1.126.276-1.691.038-.236.075-.472.112-.709.096-.619.19-1.24.281-1.861.038-.258.074-.516.111-.773.034-.239.069-.478.102-.717.743-5.347 1.282-10.76 1.61-16.229.093-1.545.17-3.095.229-4.649.056-1.478.096-2.959.121-4.445q.03-1.7775.03-3.564c0-1.587-.019-3.17-.055-4.749-.024-1.099-.056-2.196-.097-3.291-.134-3.512-.355-7.001-.66-10.466-.041-.458-.082-.915-.126-1.372-.039-.412-.079-.823-.121-1.234-.046-.46-.094-.919-.143-1.378-.044-.407-.089-.814-.135-1.22-.25-2.208-.535-4.405-.854-6.591-.222-1.516-.46-3.026-.713-4.531-.177-1.05-.362-2.097-.555-3.142-.221-1.197-.452-2.39-.693-3.58-.019-.09-.037-.181-.055-.271q-.3645-1.7835-.759-3.555c-.208-.937-.422-1.871-.643-2.804-.141-.59-.284-1.18-.429-1.769-.774-3.138-1.618-6.248-2.532-9.328-.211-.71-.425-1.417-.643-2.123-.148-.479-.297-.957-.448-1.435q-.156-.492-.315-.984c-.296-.922-.6-1.84-.909-2.756-.1-.297-.2-.593-.302-.889-.039-.114-.078-.228-.118-.342q-.1395-.4065-.282-.813c-.041-.117-.082-.234-.123-.352-.378-1.075-.764-2.146-1.159-3.213l-.15-.402c-.048-.13-.097-.261-.146-.391-.244-.652-.492-1.302-.742-1.951-.07-.18-.14-.36-.21-.541-.092-.235-.184-.471-.277-.706-.055-.142-.111-.284-.168-.425-.094-.238-.188-.476-.283-.713-.111-.279-.224-.557-.337-.834-.196-.485-.394-.968-.594-1.451-.148-.356-.297-.713-.447-1.069-.023-.056-.048-.112-.072-.169-.076-.181-.153-.362-.23-.543-.084-.196-.167-.393-.251-.59-.444-1.034-.898-2.064-1.358-3.089-.052-.118-.104-.235-.157-.352-.073-.163-.147-.326-.221-.488-.276-.608-.554-1.213-.836-1.818-.332-.714-.669-1.426-1.009-2.136-.022-.045-.043-.089-.064-.133-.122-.254-.244-.506-.367-.759-.257-.528-.516-1.055-.776-1.58-.098-.197-.196-.394-.294-.59-.078-.155-.156-.311-.234-.466-.109-.217-.219-.434-.329-.65-.079-.156-.158-.312-.237-.467-.095-.185-.19-.371-.285-.556-.304-.59-.611-1.18-.92-1.767-.084-.159-.168-.317-.252-.476-.303-.57-.607-1.139-.914-1.706-.101-.185-.201-.369-.302-.554-.101-.184-.202-.369-.304-.553-.077-.14-.154-.28-.231-.419-.123-.222-.245-.443-.368-.664-.108-.192-.216-.384-.324-.575-.082-.147-.164-.294-.247-.44-.125-.222-.251-.443-.378-.665-.089-.157-.179-.315-.269-.472-.342-.596-.687-1.19-1.034-1.782-.061-.104-.122-.208-.183-.311-.324-.55-.65-1.097-.978-1.643-.349-.58-.7-1.158-1.054-1.733-.072-.116-.143-.232-.215-.348-.122-.198-.245-.395-.368-.593-.394-.633-.792-1.265-1.193-1.893-.027-.044-.056-.088-.084-.131-.389-.61-.781-1.217-1.176-1.822-.09-.137-.18-.274-.27-.412q-.573-.873-1.155-1.74c-.059-.087-.117-.174-.176-.262-.839-1.246-1.691-2.483-2.557-3.71-.12-.171-.241-.342-.362-.512-.176-.248-.353-.494-.53-.74-.306-.427-.611-.854-.92-1.278-.227-.311-.456-.621-.685-.931-.26-.354-.52-.709-.783-1.061-.272-.365-.547-.728-.822-1.092-.238-.315-.476-.63-.716-.944-.195-.255-.392-.507-.588-.761-.309-.4-.618-.8-.929-1.197-.224-.285-.449-.568-.674-.852-.285-.359-.57-.719-.858-1.077-.262-.326-.526-.651-.791-.976-.25-.308-.5-.616-.752-.922-.296-.36-.595-.718-.893-1.076-.243-.291-.485-.582-.729-.872-.25-.296-.502-.59-.754-.885-.295-.346-.589-.692-.886-1.035-.222-.257-.445-.511-.667-.766-.326-.373-.652-.746-.98-1.117-.244-.276-.49-.549-.735-.824-.293-.327-.585-.655-.88-.98-.267-.295-.536-.587-.805-.88-.311-.339-.622-.679-.935-1.016-.233-.251-.468-.501-.702-.75-.322-.343-.643-.686-.967-1.027-.276-.29-.554-.578-.831-.866-.294-.306-.588-.612-.884-.916-.286-.293-.573-.584-.86-.876-.301-.305-.601-.61-.904-.913-.291-.292-.583-.581-.876-.871-.285-.282-.569-.565-.855-.846-.31-.304-.623-.605-.935-.907-.294-.284-.587-.569-.883-.852-.307-.293-.616-.585-.924-.877-.289-.273-.578-.546-.869-.817-.307-.287-.616-.572-.924-.856-.317-.293-.634-.586-.953-.876-.266-.243-.534-.484-.801-.725-.364-.328-.729-.657-1.095-.982-.218-.194-.437-.386-.655-.5786-.397-.35-.794-.6999-1.194-1.0469-.256-.2228-.514-.4435-.772-.665-.355-.3056-.711-.6109-1.068-.9141-.315-.2669-.631-.5318-.948-.7969-.315-.2645-.631-.5293-.948-.792-.323-.2678-.649-.5338-.974-.7998-.325-.2659-.65-.5319-.976-.7959-.299-.2414-.599-.4808-.9-.7207-.351-.2803-.702-.5607-1.054-.8388-.307-.2418-.615-.4816-.923-.7217-.343-.2675-.686-.5354-1.031-.8008-.334-.2568-.67-.5108-1.005-.7656-.319-.2422-.637-.4852-.957-.7256-.328-.2463-.658-.49-.988-.7344-.356-.2647-.713-.5295-1.072-.792-.315-.2305-.632-.4587-.948-.6875-.353-.2551-.705-.5107-1.06-.7636-.521-.3723-1.044-.7429-1.569-1.1104-.093-.0653-.187-.1302-.28-.1953-.593-.4133-1.187-.8242-1.784-1.2315-.102-.0691-.204-.138-.305-.207-.581-.3947-1.164-.7868-1.749-1.1758-.105-.0699-.211-.1392-.317-.209-.616-.408-1.234-.8131-1.855-1.2148-.04-.0259-.08-.0522-.12-.0781-.614-.3963-1.229-.7897-1.847-1.1797-.154-.0972-.309-.1933-.463-.29-.564-.3543-1.13-.7068-1.698-1.0557-.222-.1366-.445-.2725-.668-.4082-.099-.0603-.198-.1206-.297-.1807-.223-.1353-.446-.2698-.67-.4043-.172-.1035-.344-.2065-.516-.3095-.144-.0862-.289-.1721-.433-.2579-.208-.1235-.416-.2472-.624-.3701-.166-.0979-.333-.1954-.499-.2929-.198-.116-.395-.2324-.594-.3477-.187-.1086-.374-.2161-.561-.3242-.148-.0853-.296-.1709-.444-.2559-.21-.1207-.421-.2403-.631-.3603-.171-.0969-.341-.1937-.511-.2901-.206-.1166-.413-.2327-.619-.3486-.135-.0756-.27-.1513-.405-.2266-.231-.1294-.464-.2582-.696-.3867-.159-.0879-.317-.1762-.477-.2637-.173-.0953-.346-.1903-.52-.2851-.175-.0957-.351-.1909-.526-.2861-.643-.3485-1.287-.6934-1.934-1.0352-.081-.0429-.162-.0861-.243-.1289-.295-.1554-.59-.3099-.886-.4639-.068-.0356-.137-.0709-.205-.1064-.237-.123-.474-.2452-.711-.3672-.176-.0906-.352-.1814-.528-.2715-.634-.3241-1.27-.6452-1.908-.9629-.08-.0398-.161-.0794-.241-.1191-.271-.1346-.542-.268-.814-.4014-.115-.0566-.23-.1135-.346-.1699-.193-.0945-.387-.1883-.581-.2822-.214-.1039-.428-.2084-.642-.3116-.209-.1001-.418-.1993-.626-.2988-.131-.0623-.262-.1245-.393-.1865-.236-.1119-.472-.223-.709-.334-.173-.0814-.347-.1632-.521-.2441-.666-.3105-1.334-.6174-2.004-.9209-.06-.027-.119-.0542-.179-.0811-.275-.1241-.55-.2472-.825-.3701-.132-.0588-.263-.1183-.395-.1768-.222-.0987-.445-.196-.668-.2939-.16-.0705-.32-.1419-.48-.2119-1.056-.4612-2.117-.9134-3.182-1.3574-.094-.0392-.188-.0782-.282-.1172-.649-.2696-1.3-.5357-1.952-.7989-.166-.067-.333-.1335-.499-.2002-.158-.063-.315-.1258-.473-.1884-.208-.0828-.416-.166-.625-.2481-1.414-.5566-2.835-1.0977-4.264-1.624-.174-.0644-.349-.1294-.524-.1934-.212-.0774-.424-.1537-.637-.2304-.171-.062-.343-.124-.514-.1856-.282-.1009-.563-.2011-.845-.3008-.108-.0382-.216-.0762-.324-.1142q-.3225-.1134-.645-.2256c-.232-.0807-.464-.1613-.696-.2412-.162-.0557-.324-.1107-.487-.166-.186-.0638-.373-.1282-.56-.1914-1.05-.3552-2.105-.7013-3.162-1.0401-.191-.0612-.382-.1229-.573-.1836-.595-.1884-1.19-.3734-1.787-.5566-.61-.1875-1.222-.3727-1.835-.5547-1.46-.4338-2.928-.8515-4.402-1.2539-.182-.0496-.363-.1003-.545-.1494-1.461-.3947-2.929-.7724-4.403-1.1358-.206-.0507-.411-.1022-.617-.1523-.139-.0337-.278-.0662-.416-.0996-.257-.062-.514-.1245-.772-.1856-.283-.0672-.567-.1331-.851-.1992-.126-.0292-.252-.0589-.377-.0879-1.348-.3108-2.701-.6081-4.059-.8925-.358-.0751-.716-.1495-1.075-.2227-.087-.0178-.175-.0351-.262-.0527-.334-.0677-.667-.1352-1.002-.2012-1.18-.2332-2.365-.4558-3.552-.669-.063-.0112-.125-.023-.188-.0341-.236-.0421-.472-.0828-.708-.1241-.206-.0359-.411-.073-.617-.1084-.165-.0283-.331-.0559-.496-.0839-.673-.114-1.347-.2246-2.023-.3321-.236-.0376-.472-.0745-.709-.1113-.265-.0413-.531-.0818-.797-.1221-.611-.0927-1.224-.1831-1.837-.2705-.2-.0284-.399-.0571-.599-.0849-2.057-.287-4.123-.5432-6.198-.7696-.092-.0099-.183-.0204-.275-.0302-.788-.085-1.579-.1651-2.37-.2413-.082-.0078-.163-.0166-.245-.0244-.743-.0706-1.487-.1364-2.232-.1992-.218-.0183-.435-.0361-.653-.0537-1.114-.0903-2.23-.1715-3.349-.2441-.118-.0077-.236-.016-.354-.0235-.07-.0044-.14-.0083-.21-.0127-.806-.0502-1.614-.0967-2.423-.1377-.126-.0064-.252-.0114-.379-.0175-.763-.0373-1.528-.0716-2.294-.1006-1.207-.0458-2.418-.0804-3.63-.1055-1.015-.021-2.031-.0356-3.048-.042zm-66.679 306.539c17.317 2.928 35.656 4.747 54.679 5.288v77.611c-12.577-5.215-26.955-18.858-40.073-45.093-5.558-11.116-10.491-23.816-14.606-37.806m133.357.001c-4.115 13.989-9.047 26.689-14.605 37.805-13.118 26.235-27.496 39.878-40.073 45.093v-77.611c19.023-.541 37.361-2.359 54.678-5.287M79.6729 311.977c20.1768 15.765 48.6261 28.629 82.2871 37.061 8.432 33.662 21.297 62.111 37.062 82.288-56.597-18.055-101.2947-62.752-119.3491-119.349m350.6521.002c-18.055 56.597-62.752 101.293-119.348 119.347 15.765-20.177 28.629-48.625 37.061-82.287 33.661-8.431 62.11-21.294 82.287-37.06M243 268v67.817c-21.639-.652-42.143-3.053-60.971-6.847-3.794-18.828-6.194-39.331-6.846-60.97zm91.817 0c-.652 21.639-3.053 42.142-6.847 60.97-18.828 3.794-39.331 6.195-60.97 6.847V268zm-183.645 0c.541 19.023 2.359 37.361 5.287 54.678-13.989-4.115-26.688-9.047-37.804-14.605C92.4194 294.955 78.7756 280.577 73.5605 268zm285.267 0c-5.215 12.577-18.858 26.955-45.094 40.073-11.116 5.558-23.817 10.49-37.806 14.605 2.928-17.317 4.747-35.655 5.288-54.678zm-279.98-78.679c-2.928 17.317-4.745 35.656-5.286 54.679H73.5605c5.2151-12.577 18.8588-26.955 45.0945-40.073 11.116-5.558 23.815-10.491 37.804-14.606M243 244h-67.817c.652-21.639 3.052-42.143 6.846-60.971 18.828-3.794 39.332-6.196 60.971-6.848zm24-67.819c21.639.652 42.142 3.054 60.97 6.848 3.794 18.828 6.195 39.331 6.847 60.971H267zm86.54 13.14c13.989 4.115 26.689 9.048 37.805 14.606 26.236 13.118 39.879 27.496 45.094 40.073h-77.611c-.541-19.023-2.36-37.362-5.288-54.679M310.977 80.6729C367.573 98.727 412.27 143.424 430.325 200.02c-20.177-15.766-48.626-28.629-82.286-37.06-8.432-33.662-21.296-62.11-37.062-82.2871m-111.958.0009C183.254 100.851 170.391 129.3 161.96 162.96c-33.66 8.431-62.1093 21.294-82.2862 37.059C97.7289 143.425 142.425 98.7289 199.019 80.6738M243 152.172c-19.023.541-37.362 2.36-54.679 5.288 4.115-13.989 9.048-26.689 14.606-37.805C216.045 93.4193 230.423 79.7756 243 74.5605zm24-77.6115c12.577 5.2151 26.955 18.8588 40.073 45.0945 5.558 11.116 10.49 23.815 14.605 37.804-17.317-2.928-35.655-4.746-54.678-5.287z"/><defs><linearGradient id="a" x1="512" x2=".00006104" y1=".00006104" y2="512" gradientUnits="userSpaceOnUse"><stop stop-color="#00bfcc"/><stop offset="1" stop-color="#290099"/></linearGradient><linearGradient id="b" x1="487" x2="23.0001" y1="24.0001" y2="488" gradientUnits="userSpaceOnUse"><stop stop-color="#f2ffff"/><stop offset="1" stop-color="#9ee8ff"/></linearGradient></defs></svg>